# xmcd
#
# Track frame offsets:
#	150
#	8884
#	18662
#	30876
#	41361
#	52031
#	63818
#	73739
#	84077
#	95193
#	105964
#	115033
#	126609
#	138162
#	148479
#	161890
#	172215
#	185397
#	194562
#	205845
#	217919
#	227334
#	237246
#	247349
#	257883
#
# Disc length: 3563 seconds
# Revision: 0
# Processed by: cddbd v1.5.2PL0 Copyright (c) Steve Scherf et al.
# Submitted via: dBpowerAMP V12.0
#
DISCID=6b0de919
DTITLE=Various Artist - Heavy Sugar - The Pure Essence Of New Orleans R&B
DYEAR=1957
DGENRE=Rhythm and Blues
TTITLE0=Fats Domino - Don't Deceive Me
TTITLE1=Frankie Ford - Cheatin' Woman
TTITLE2=Joe Turner - Honey Hush
TTITLE3=Roy Brown - Diddy-Y-Diddy-O
TTITLE4=Allen Toussaint - Whirlaway
TTITLE5=Art Neville - Cha Dooky Doo
TTITLE6=Ruth and Al - Real Gone Party
TTITLE7=Bobby Marchan - Chickee Wah Wah
TTITLE8=Mickey and Sylvia - There'll Be No Backin' Out
TTITLE9=Sam Cooke - That's All I Need To Know
TTITLE10=Jerry Byrne - Carry On
TTITLE11=Huey Smith - We Like Birdland
TTITLE12=Lee Allen and His Band - Creole Alley
TTITLE13=Richard Berry - Mad About You Baby
TTITLE14=Earl King - Well-O, Well-O, Well-O Baby
TTITLE15=Bobby Mandolph - Malinda
TTITLE16=Smiley Lewis - School Days Are Back Again
TTITLE17=Jimmy Beasley - Don't Break This Heart Of Mine
TTITLE18=Little Booker - Doin' The Hambone
TTITLE19=Li'l Millet and His Creoles - Rich Woman
TTITLE20=The Royal Kings - Teachin' And Preachin'
TTITLE21=Little Richard - Oh Why?
TTITLE22=Harry Lee - Every Time I See You
TTITLE23=Junior Gordon - Blow Wind Blow
TTITLE24=Lloyd Price - I'm Glad, Glad
EXTD=
EXTT0=
EXTT1=
EXTT2=
EXTT3=
EXTT4=
EXTT5=
EXTT6=
EXTT7=
EXTT8=
EXTT9=
EXTT10=
EXTT11=
EXTT12=
EXTT13=
EXTT14=
EXTT15=
EXTT16=
EXTT17=
EXTT18=
EXTT19=
EXTT20=
EXTT21=
EXTT22=
EXTT23=
EXTT24=
PLAYORDER=
